<?xml version="1.0" standalone="no"?>
<!DOCTYPE svg PUBLIC "-//W3C//DTD SVG 20010904//EN"
 "http://www.w3.org/TR/2001/REC-SVG-20010904/DTD/svg10.dtd">
<svg version="1.0" xmlns="http://www.w3.org/2000/svg"
 width="1000.000000pt" height="1000.000000pt" viewBox="0 0 1000.000000 1000.000000"
 preserveAspectRatio="xMidYMid meet">
<metadata>
Created by potrace 1.15, written by Peter Selinger 2001-2017
</metadata>
<g transform="translate(0.000000,1000.000000) scale(0.056818181818181816,-0.056818181818181816)"
fill="#000000" stroke="none">
<path d="M8116 16068 c5 -7 22 -31 39 -53 77 -101 157 -299 192 -474 28 -139
23 -446 -10 -621 -48 -249 -140 -518 -275 -801 -230 -484 -681 -1098 -1188
-1619 -384 -395 -762 -964 -944 -1420 -130 -327 -190 -613 -190 -908 0 -469
115 -847 377 -1240 316 -473 775 -863 1467 -1246 159 -88 481 -251 516 -261
14 -4 68 -27 120 -51 179 -81 664 -254 677 -240 3 3 -13 72 -35 153 -71 254
-98 436 -108 703 -19 483 138 967 471 1455 47 68 187 260 312 427 262 348 282
378 425 628 377 661 589 1267 654 1875 13 125 15 214 11 415 -5 235 -8 267
-36 405 -62 295 -121 494 -214 722 -266 647 -847 1304 -1583 1788 -161 106
-645 375 -674 375 -6 0 -8 -5 -4 -12z"/>
<path d="M10990 12648 c0 -4 8 -37 17 -75 22 -91 22 -344 -1 -513 -50 -367
-187 -867 -346 -1265 -50 -127 -222 -485 -276 -575 -14 -25 -51 -87 -81 -138
-63 -107 -176 -262 -276 -377 -166 -192 -438 -585 -548 -790 -83 -155 -196
-441 -234 -595 -70 -277 -69 -580 4 -848 54 -195 65 -232 70 -232 4 0 29 20
56 43 98 85 431 341 535 410 58 39 155 107 215 152 61 44 153 110 205 145 429
287 562 391 761 589 249 250 367 413 522 727 63 126 144 402 176 594 33 207
37 474 10 730 -59 557 -309 1237 -662 1795 -114 180 -147 230 -147 223z"/>
<path d="M740 5300 l0 -160 610 0 609 0 6 33 c3 17 5 88 3 157 l-3 125 -612 3
-613 2 0 -160z"/>
<path d="M2050 5300 l0 -160 160 0 160 0 0 160 0 160 -160 0 -160 0 0 -160z"/>
<path d="M3706 5428 c-9 -51 -5 -488 5 -494 5 -3 26 8 46 24 47 37 437 325
555 411 48 34 92 69 99 77 10 12 -37 14 -344 14 l-355 0 -6 -32z"/>
<path d="M4507 5445 c-11 -26 -8 -313 2 -320 5 -3 32 -10 60 -15 121 -23 215
-94 269 -203 89 -179 12 -400 -171 -491 -31 -15 -57 -34 -57 -41 0 -6 29 -49
65 -94 36 -46 79 -102 96 -126 l32 -44 36 19 c119 60 235 182 296 311 57 121
78 217 71 330 -7 114 -42 245 -88 327 -39 69 -154 192 -223 239 -119 80 -372
151 -388 108z"/>
<path d="M6692 5323 l3 -138 388 -3 387 -2 0 140 0 140 -390 0 -391 0 3 -137z"/>
<path d="M9030 5236 l0 -225 840 -805 c462 -443 849 -810 860 -816 20 -11 20
-7 20 208 l0 219 -122 120 c-68 66 -238 229 -378 364 -140 134 -468 449 -729
699 -261 250 -478 457 -483 458 -4 2 -8 -98 -8 -222z"/>
<path d="M10427 5453 c-9 -8 -9 -1076 -1 -1097 5 -14 29 -16 165 -16 l159 0 0
560 0 560 -158 0 c-87 0 -162 -3 -165 -7z"/>
<path d="M12345 5448 c-3 -7 -4 -476 -3 -1043 l3 -1030 168 -3 167 -2 -2 1042
-3 1043 -163 3 c-124 2 -164 0 -167 -10z"/>
<path d="M12764 5447 c-2 -7 -3 -78 -2 -157 l3 -145 480 0 480 0 3 158 3 157
-481 0 c-384 0 -482 -3 -486 -13z"/>
<path d="M15051 5438 c7 -13 275 -419 597 -903 322 -484 627 -944 678 -1022
l93 -143 197 0 c178 0 196 2 190 16 -7 19 -222 344 -911 1378 l-460 691 -198
3 -198 2 12 -22z"/>
<path d="M16365 5408 c-65 -92 -78 -111 -142 -207 -35 -52 -63 -98 -63 -102 0
-4 6 -9 14 -12 7 -3 51 -32 97 -65 46 -32 96 -66 110 -76 l27 -17 69 103 c38
57 112 166 165 243 52 77 100 150 107 163 l12 22 -180 0 -179 0 -37 -52z"/>
<path d="M7039 5116 c-87 -30 -129 -87 -129 -173 0 -165 214 -231 316 -98 59
78 28 218 -58 257 -51 23 -89 28 -129 14z"/>
<path d="M1387 5053 c-4 -3 -7 -80 -7 -170 l0 -163 165 0 165 0 0 170 0 170
-158 0 c-87 0 -162 -3 -165 -7z"/>
<path d="M16120 4973 c-92 -35 -130 -86 -130 -173 0 -87 54 -147 148 -166 44
-9 133 34 160 77 34 56 37 116 9 169 -33 63 -134 114 -187 93z"/>
<path d="M9030 4125 l0 -755 170 0 170 0 0 598 0 597 -160 158 c-88 86 -165
157 -170 157 -6 0 -10 -278 -10 -755z"/>
<path d="M3706 4834 c-9 -24 -7 -1437 2 -1452 7 -9 47 -12 168 -10 l159 3 0
735 0 735 -161 3 c-141 2 -162 0 -168 -14z"/>
<path d="M6920 4200 l0 -470 165 0 165 0 0 470 0 470 -165 0 -165 0 0 -470z"/>
<path d="M1385 4628 c-3 -7 -4 -292 -3 -633 l3 -620 163 -3 162 -2 0 635 0
635 -160 0 c-119 0 -162 -3 -165 -12z"/>
<path d="M12762 4393 l3 -158 255 0 255 0 3 158 3 157 -261 0 -261 0 3 -157z"/>
<path d="M13455 4527 c-56 -32 -87 -88 -82 -153 12 -168 227 -206 305 -54 73
141 -83 286 -223 207z"/>
<path d="M4120 4357 c0 -8 48 -76 108 -153 107 -139 323 -422 526 -691 l107
-143 200 0 c109 0 199 2 199 5 0 6 -180 244 -314 415 -49 63 -144 185 -210
270 -124 162 -193 249 -226 288 -18 21 -24 22 -204 22 -149 0 -186 -3 -186
-13z"/>
<path d="M15620 4304 c-41 -61 -459 -682 -552 -821 -37 -56 -68 -104 -68 -107
0 -4 86 -5 191 -4 l192 3 115 170 c63 94 156 231 207 305 50 74 103 153 117
175 l26 41 -78 119 c-43 66 -87 131 -97 144 l-19 24 -34 -49z"/>
<path d="M10440 4241 c0 -9 294 -291 304 -291 3 0 6 68 6 150 l0 150 -155 0
c-85 0 -155 -4 -155 -9z"/>
<path d="M12767 3683 c-4 -3 -7 -75 -7 -160 l0 -153 485 0 485 0 0 160 0 160
-478 0 c-263 0 -482 -3 -485 -7z"/>
<path d="M6690 3510 l0 -140 390 0 390 0 0 140 0 140 -390 0 -390 0 0 -140z"/>
<path d="M4100 2470 c-174 -4 -205 -7 -208 -20 -2 -10 11 -23 33 -33 l35 -17
0 -235 0 -236 -35 -15 c-19 -8 -35 -21 -35 -29 0 -13 32 -15 218 -15 156 0
221 3 230 12 7 7 12 28 12 49 0 20 5 51 11 68 15 43 -1 63 -31 36 -11 -10 -20
-25 -20 -33 0 -8 -16 -30 -36 -48 -33 -31 -40 -34 -100 -34 l-64 0 0 120 0
120 60 0 c53 0 64 -3 91 -30 18 -16 35 -27 40 -24 12 7 11 141 0 149 -6 3 -24
-8 -41 -25 -27 -27 -37 -30 -91 -30 l-60 0 3 108 3 107 64 3 63 3 47 -49 c25
-28 51 -48 57 -46 24 10 -10 160 -35 152 -3 -1 -98 -5 -211 -8z"/>
<path d="M7993 2460 c-77 -25 -139 -90 -173 -180 -45 -120 -8 -277 84 -356 60
-51 121 -68 225 -60 47 4 125 9 174 12 88 7 105 17 72 44 -11 9 -15 33 -15 87
0 67 2 76 26 98 49 45 30 54 -113 52 -112 -2 -128 -4 -131 -19 -2 -12 8 -22
32 -32 35 -15 36 -16 36 -71 0 -105 -36 -146 -114 -129 -41 8 -63 29 -94 89
-23 44 -27 65 -30 168 -5 137 7 193 50 239 27 29 32 30 85 26 54 -5 58 -7 118
-70 53 -56 66 -65 88 -61 30 6 31 7 17 65 -5 24 -12 55 -15 69 -4 24 -10 27
-70 33 -174 17 -189 16 -252 -4z"/>
<path d="M5775 2460 c-10 -16 3 -30 44 -46 l38 -15 6 -97 c9 -123 9 -228 1
-314 l-7 -67 -41 -3 c-34 -2 -42 -7 -44 -25 -3 -23 -2 -23 123 -23 104 0 127
3 132 15 8 22 -2 28 -55 35 l-47 5 -5 188 c-3 104 -2 191 2 193 8 5 70 -77
218 -289 90 -129 117 -156 140 -142 6 4 10 102 10 264 0 195 3 261 13 269 6 6
28 12 47 14 27 2 35 7 35 23 0 19 -7 20 -125 20 -100 0 -125 -3 -125 -14 0
-18 20 -28 68 -36 l37 -6 0 -132 -1 -132 -25 30 c-13 17 -52 70 -87 119 -34
49 -76 107 -92 130 l-31 41 -111 3 c-69 2 -114 -1 -118 -8z"/>
<path d="M9632 2448 c2 -17 12 -24 33 -28 l30 -5 3 -246 2 -247 -35 -6 c-26
-5 -35 -12 -35 -26 0 -19 8 -20 150 -20 142 0 150 1 150 20 0 14 -9 21 -35 26
l-35 6 2 246 3 246 33 8 c22 6 32 14 32 28 0 19 -7 20 -151 20 -150 0 -150 0
-147 -22z"/>
<path d="M11185 2460 c-10 -15 11 -37 43 -45 15 -4 30 -12 34 -18 4 -7 8 -117
8 -244 l0 -233 -31 0 c-38 0 -69 -16 -69 -35 0 -12 22 -15 129 -15 87 0 132 4
137 12 10 16 -25 38 -63 38 -21 0 -36 6 -42 18 -13 24 -19 383 -6 379 11 -4
173 -222 266 -360 49 -71 65 -88 82 -85 22 3 22 4 25 270 l2 268 23 5 c12 2
33 6 47 7 17 2 25 9 25 23 0 19 -8 20 -119 23 -66 1 -123 -1 -128 -6 -17 -17
3 -42 34 -42 64 0 68 -8 68 -145 0 -69 -3 -125 -7 -125 -5 1 -33 37 -63 80
-30 44 -81 116 -113 160 l-58 80 -109 0 c-65 0 -111 -4 -115 -10z"/>
<path d="M13182 2454 c3 -17 18 -28 51 -38 16 -5 17 -26 17 -249 l0 -243 -32
-9 c-18 -6 -33 -17 -33 -25 0 -13 32 -15 225 -15 l225 0 6 45 c3 25 10 65 14
89 7 39 6 43 -11 39 -10 -1 -30 -24 -44 -50 -31 -59 -63 -78 -134 -78 l-56 0
0 121 0 121 66 -4 c59 -4 70 -8 89 -32 33 -41 45 -26 45 54 0 81 -13 96 -46
55 -20 -26 -31 -29 -88 -33 l-66 -4 0 111 0 111 55 0 c66 0 94 -12 120 -53 11
-18 31 -33 44 -35 23 -4 23 -3 16 60 -4 34 -9 66 -12 71 -2 4 -105 7 -229 7
-204 0 -225 -2 -222 -16z"/>
</g>
</svg>
